<svg version="1.1" id="Layer_1" xmlns="http://www.w3.org/2000/svg" xmlns:xlink="http://www.w3.org/1999/xlink" x="0px" y="0px" width="100%" viewBox="0 0 2500 500" enable-background="new 0 0 512 512" xmlns:bx="https://boxy-svg.com">
  <defs>
    <linearGradient gradientUnits="userSpaceOnUse" x1="467.504" y1="173.697" x2="467.504" y2="419.614" id="gradient-0" gradientTransform="matrix(0.102653, 0.994717, -0.457212, 0.047183, 417.620592, -400.477653)">
      <stop offset="0" style="stop-color: rgb(93, 195, 235);"></stop>
      <stop offset="1" style="stop-color: rgb(10, 20, 180);"></stop>
    </linearGradient>
    <style bx:fonts="Noto Sans Symbols">@import url(https://fonts.googleapis.com/css2?family=Noto+Sans+Symbols%3Aital%2Cwght%400%2C100..900&amp;display=swap);</style>
  </defs>
  <path fill="#F0711E" opacity="1.000000" stroke="none" d="M 46.677 13.2 C 46.09 6.25 54.028 4.402 56.294 4.372 C 69.341 4.195 101.643 3.872 120.912 3.881 C 136.836 3.765 141.958 3.784 146.016 4.176 C 156.249 8.417 158.548 13.453 165.161 23.573 C 175.084 38.757 184.733 54.126 194.207 69.595 C 203.1 84.117 211.686 98.829 220.277 113.535 C 228.96 128.398 237.456 143.37 246.082 158.267 C 255.618 174.736 265.189 191.185 274.779 207.623 C 285.073 225.269 295.416 242.885 305.718 260.526 C 319.082 283.412 332.486 306.276 345.752 329.219 C 351.584 339.305 357.048 349.603 362.81 359.73 C 367.544 368.049 372.338 376.339 377.349 384.493 C 383.375 394.3 389.017 404.453 396.101 413.453 C 413.036 428.827 424.029 427.49 424.971 427.49 C 440.463 427.49 460.842 428.086 468.914 428.117 C 475.76 429.118 475.306 430.848 476.646 432.3 C 477.638 434.179 477.413 435.476 477.565 436.906 C 477.288 452.478 477.144 467.674 477.1 482.869 C 476.792 487.907 477.274 488.646 476.689 492.212 C 474.339 495.606 472.056 496.371 466.363 496.371 C 434.036 496.37 401.703 496.75 369.383 496.248 C 356.077 496.041 344.088 491.149 333.989 481.841 C 325.64 474.147 320.361 464.51 314.96 454.847 C 312.114 449.756 309.264 444.659 306.171 439.719 C 276.527 387.857 264.773 367.889 253.218 347.807 C 236.123 317.372 235.045 316.253 234.204 315.152 C 231.753 318.475 229.519 321.231 227.578 324.18 C 216.897 340.411 206.395 356.76 195.626 372.931 C 183.885 390.561 171.835 407.984 160.075 425.601 C 148.494 442.952 137.151 460.462 125.604 477.836 C 122.817 482.029 119.923 486.223 116.529 489.911 C 114.436 492.185 111.582 494.877 108.038 494.877 C 36.405 494.877 84.106 494.925 32.017 494.925 C 25.091 494.925 21.377 487.331 26.717 479.537 C 35.238 467.1 43.714 454.632 52.288 442.231 C 63.06 426.653 74.01 411.197 84.701 395.563 C 95.305 380.058 105.615 364.351 116.178 348.817 C 126.926 333.011 137.915 317.368 148.632 301.541 C 158.911 286.362 168.965 271.032 179.144 255.785 C 181.74 251.896 184.434 248.073 187.082 244.218 C 189.356 240.908 189.891 237.521 187.989 233.772 C 174.677 207.524 161.71 181.096 148.042 155.035 C 138.7 137.223 128.457 119.881 118.507 102.392 C 114.993 96.217 111.493 89.984 107.374 84.214 C 102.001 76.687 95.2 72.096 85.851 71.673 C 82.776 71.533 78.53 71.706 74.33 71.771 C 57.832 72.08 55.875 72.191 55.875 72.191 C 49.81 71.482 47.027 64.347 47.023 63.094 C 46.985 48.201 46.797 23.989 46.677 13.2 Z"></path>
  <path style="fill: url(#gradient-0);" d="M 407.293 1.784 C 403.012 1.742 400.557 5.235 400.557 5.235 L 277.315 180.592 C 272.205 187.862 276.129 194.402 276.129 194.402 L 304.588 241.834 C 308.083 247.659 311.76 242.392 311.76 242.392 L 474.347 9.518 C 479.254 2.49 471.511 2.414 471.511 2.414 L 407.293 1.784 Z"></path>
  <text style="fill: rgb(255, 255, 255); font-family: &quot;Noto Sans Symbols&quot;; font-size: 300px; stroke-width: 25px; white-space: pre; transform-box: fill-box; transform-origin: 724.077px 204.99px;" x="520.98" y="406.603">LambdaX.cloud</text>
</svg>